# xmcd
#
# Track frame offsets: 
#        150
#        14684
#        28473
#        46929
#        61017
#        84948
#        99496
#        114330
#        131532
#        153018
#
# Disc length: 2244 seconds
#
# Revision: 3
# Processed by: cddbd v1.5.2PL0 Copyright (c) Steve Scherf et al.
# Submitted via: ExactAudioCopy v1.0b4
#
DISCID=7208c20a
DTITLE=Sonny Landreth - Down In Louisiana
DYEAR=1985
DGENRE=Blues
TTITLE0=Ay Ai Ai
TTITLE1=Sugar Cane
TTITLE2=I Had A Dream
TTITLE3=Without My Baby
TTITLE4=Congo Square
TTITLE5=Checking Up On My Baby
TTITLE6=The Parish Line
TTITLE7=Little India
TTITLE8=If I Ever Get Lucky
TTITLE9=Everybody's Breakin' Everybody's Heart
EXTD=Epic (SONY Music)  EK 44065
EXTT0=
EXTT1=
EXTT2=
EXTT3=
EXTT4=
EXTT5=
EXTT6=
EXTT7=
EXTT8=
EXTT9=
PLAYORDER=
